# AST/ASF file generated using VICON BodyLanguage
# -----------------------------------------------
:version 1.10
:name VICON
:units
  mass 1.0
  length 0.45
  angle deg
:documentation
   .ast/.asf automatically generated from VICON data using
   VICON BodyBuilder and BodyLanguage model FoxedUp or BRILLIANT.MOD
:root
   order TX TY TZ RX RY RZ
   axis XYZ
   position 0 0 0  
   orientation 0 0 0 
:bonedata
  begin
     id 1 
     name lhipjoint
     direction 0.541323 -0.757556 0.364798 
     length 2.47576 
     axis 0 0 0  XYZ
  end
  begin
     id 2 
     name lfemur
     direction 0.34202 -0.939693 0  
     length 7.46493  
     axis 0 0 20  XYZ
    dof rx ry rz
    limits (-160.0 20.0)
           (-70.0 70.0)
           (-60.0 70.0)
  end
  begin
     id 3 
     name ltibia
     direction 0.34202 -0.939693 0   
     length 7.73805   
     axis 0 0 20   XYZ
    dof rx
    limits (-10.0 170.0)
  end
  begin
     id 4 
     name lfoot
     direction 0.107174 -0.294458 0.949636   
     length 2.25864   
     axis -90 7.62852e-016 20   XYZ
    dof rx rz
    limits (-45.0 90.0)
           (-70.0 20.0)
  end
  begin
     id 5 
     name ltoes
     direction 1.53606e-011 -4.21934e-011 1   
     length 1.12451   
     axis -90 7.62852e-016 20   XYZ
    dof rx
    limits (-90.0 20.0)
  end
  begin
     id 6 
     name rhipjoint
     direction -0.524745 -0.766967 0.36933   
     length 2.44538  
     axis 0 0 0  XYZ 
  end
  begin
     id 7 
     name rfemur
     direction -0.34202 -0.939693 0   
     length 7.61604   
     axis 0 0 -20   XYZ
    dof rx ry rz
    limits (-160.0 20.0)
           (-70.0 70.0)
           (-70.0 60.0)
  end
  begin
     id 8 
     name rtibia
     direction -0.34202 -0.939693 0   
     length 7.61056   
     axis 0 0 -20   XYZ
    dof rx
    limits (-10.0 170.0)
 end
 begin
     id 9 
     name rfoot
     direction -0.12616 -0.346623 0.929482   
     length 2.46372  
     axis -90 -7.62852e-016 -20   XYZ
    dof rx rz
    limits (-45.0 90.0)
           (-20.0 70.0)
  end
  begin
     id 10 
     name rtoes
     direction -1.53531e-011 -4.22004e-011 1   
     length 1.21611   
     axis -90 -7.62852e-016 -20   XYZ
    dof rx
    limits (-90.0 20.0)
  end
  begin
     id 11 
     name lowerback
     direction -0.000778023 0.997293 -0.0735223   
     length 2.06139   
     axis 0 0 0   XYZ
    dof rx ry rz
    limits (-20.0 45.0)
           (-30.0 30.0)
           (-30.0 30.0)
  end
  begin
     id 12 
     name upperback
     direction 0.0222598 0.999722 -0.0078355   
     length 2.06383   
     axis 0 0 0   XYZ
    dof rx ry rz
    limits (-20.0 45.0)
           (-30.0 30.0)
           (-30.0 30.0)
  end
  begin
     id 13 
     name thorax
     direction 0.0219654 0.999405 0.0265994   
     length 2.07163   
     axis 0 0 0   XYZ
    dof rx ry rz
    limits (-20.0 45.0)
           (-30.0 30.0)
           (-30.0 30.0)
  end
  begin
     id 14 
     name lowerneck
     direction 0.0213282 0.988147 0.15202   
     length 1.75969   
     axis 0 0 0   XYZ
    dof rx ry rz
    limits (-20.0 45.0)
           (-30.0 30.0)
           (-30.0 30.0)
  end
  begin
     id 15 
     name upperneck
     direction -0.0546456 0.982624 -0.177379   
     length 1.79244   
     axis 0 0 0   XYZ
    dof rx ry rz
    limits (-20.0 45.0)
           (-30.0 30.0)
           (-30.0 30.0)
  end
  begin
     id 16
     name head
     direction -0.0199987 0.996855 -0.076686  
     length 1.80555  
     axis 0 0 0   XYZ
    dof rx ry rz
    limits (-20.0 45.0)
           (-30.0 30.0)
           (-30.0 30.0)
  end
  begin
     id 17 
     name lclavicle
     direction 0.929565 0.363219 -0.063096  
     length 3.55722  
     axis 0 0 0   XYZ
    dof ry rz
    limits (-20.0 10.0)
           (0.0 20.0)
  end
  begin
     id 18 
     name lhumerus
     direction 1 -4.48993e-011 -2.36203e-027   
     length 4.92785   
     axis 180 -30 -90   XYZ
    dof rx ry rz
    limits (-60.0 90.0)
           (-90.0 90.0)
           (-90.0 90.0)
  end
  begin
     id 19
     name lradius
     direction 1 -4.48947e-011 2.02997e-027   
     length 3.44052   
     axis 180 -30 -90   XYZ
    dof rx
    limits (-10.0 170.0)
  end
  begin
     id 20
     name lwrist
     direction 1 -4.48962e-011 1.45991e-027   
     length 1.72026   
     axis 1.49639e-024 90 90   XYZ
    dof ry
    limits (-180.0 0.0)
 end
  begin
     id 21 
     name lhand
     direction 1 -4.48984e-011 2.91906e-027   
     length 0.654326   
     axis -1.863e-015 90 90   XYZ
    dof rx rz
    limits (-90.0 90.0)
           (-45.0 45.0)
  end
  begin
     id 22 
     name lfingers
     direction 1 -4.48961e-011 5.83968e-027   
     length 0.527534   
     axis -3.72598e-015 90 90   XYZ
    dof rx
    limits (0.0 90.0)
  end
  begin
     id 23
     name lthumb
     direction 0.707107 -6.34963e-011 0.707107   
     length 0.757437   
     axis -90 45 -6.68868e-015   XYZ
    dof rx rz
    limits (-45.0 45.0)
           (-45.0 45.0)
  end
  begin
     id 24 
     name rclavicle
     direction -0.902944 0.422599 -0.0781198   
     length 3.54432  
     axis 0 0 0   XYZ 
    dof ry rz
    limits (-10.0 20.0)
           (-20.0 0.0)
  end
  begin
     id 25 
     name rhumerus
     direction -1 -4.48953e-011 -4.75835e-028  
     length 5.09181   
     axis 180 30 90   XYZ
    dof rx ry rz
    limits (-90.0 60.0)
           (-90.0 90.0)
           (-90.0 90.0)
  end
  begin
     id 26 
     name rradius
     direction -1 -4.48986e-011 -3.25889e-027   
     length 3.49865   
     axis 180 30 90   XYZ
    dof rx
    limits (-10.0 170.0)
  end
  begin
     id 27 
     name rwrist
     direction -1 -4.48963e-011 1.45989e-027   
     length 1.74933   
     axis 1.49639e-024 -90 -90   XYZ
    dof ry
    limits (-180.0 0.0)
  end
  begin
     id 28
     name rhand
     direction -1 -4.49003e-011 2.91844e-027   
     length 0.66641   
     axis -1.863e-015 -90 -90   XYZ
    dof rx rz
    limits (-90.0 90.0)
           (-45.0 45.0)
  end
  begin
     id 29
     name rfingers
     direction -1 -4.48973e-011 5.83886e-027   
     length 0.537277   
     axis -3.72598e-015 -90 -90   XYZ
    dof rx
    limits (0.0 90.0)
  end
  begin
     id 30
     name rthumb
     direction -0.707107 -6.34976e-011 0.707107   
     length 0.771425   
     axis -90 -45 6.68868e-015   XYZ
    dof rx rz
    limits (-45.0 45.0)
           (-45.0 45.0)
  end
:hierarchy
  begin
    root lhipjoint rhipjoint lowerback
    lhipjoint lfemur
    lfemur ltibia
    ltibia lfoot
    lfoot ltoes
    rhipjoint rfemur
    rfemur rtibia
    rtibia rfoot
    rfoot rtoes
    lowerback upperback
    upperback thorax
    thorax lowerneck lclavicle rclavicle
    lowerneck upperneck
    upperneck head
    lclavicle lhumerus
    lhumerus lradius
    lradius lwrist
    lwrist lhand lthumb
    lhand lfingers
    rclavicle rhumerus
    rhumerus rradius
    rradius rwrist
    rwrist rhand rthumb
    rhand rfingers
  end

#!OML:ASF H:\LiuWeirdWalks\Patient Classification 1\Patient 1\Session 1\male.ASF
:FULLY-SPECIFIED
:DEGREES
79
root 0.529685 17.84 -30.5291 4.17271 3.38081 -0.138139
lowerback 2.16425 0.782379 -2.43374
upperback -2.93334 0.971485 0.712241
thorax -4.29317 0.574167 2.04251
lowerneck -21.5526 -0.453588 6.06227
upperneck 25.8411 -1.42194 -4.62877
head 11.9919 -0.650879 -3.00056
rclavicle 5.98684e-016 7.65321e-015
rhumerus -32.9377 -13.4321 -79.5352
rradius 22.6495
rwrist 1.39018
rhand -16.8609 -2.26004
rfingers 7.12502
rthumb 9.36959 -32.0318
lclavicle 5.98684e-016 7.65321e-015
lhumerus -32.2011 0.4947 87.2325
lradius 23.026
lwrist 5.57435
lhand -11.3934 1.04268
lfingers 7.12502
lthumb 14.6415 30.5058
rfemur -12.6552 -0.779145 19.0473
rtibia 33.724
rfoot -17.7693 -21.0313
rtoes -1.80656
lfemur -9.25507 -1.06768 -18.8082
ltibia 27.1799
lfoot -14.3171 14.2568
ltoes -8.84906
80
root 0.525052 17.8344 -30.5289 4.20819 3.31222 -0.0548971
lowerback 2.23664 0.781584 -2.4953
upperback -2.93457 0.96523 0.692336
thorax -4.33611 0.573208 2.05598
lowerneck -21.4996 -0.430563 6.0904
upperneck 25.7378 -1.39029 -4.65047
head 11.9428 -0.638465 -3.00441
rclavicle -4.20864e-016 -6.31141e-015
rhumerus -32.9334 -13.4758 -79.5512
rradius 22.6467
rwrist 1.40807
rhand -16.8755 -2.24052
rfingers 7.12502
rthumb 9.35551 -32.0129
lclavicle -4.20864e-016 -6.31141e-015
lhumerus -32.1972 0.383343 87.2491
lradius 23.1544
lwrist 5.94728
lhand -11.2916 1.34262
lfingers 7.12502
lthumb 14.7396 30.7986
rfemur -12.7847 -0.766162 18.9676
rtibia 33.8969
rfoot -18.0027 -21.0022
rtoes -1.81026
lfemur -9.28641 -1.06405 -18.8808
ltibia 27.2005
lfoot -14.4239 14.2749
ltoes -8.76357
81
root 0.520204 17.8286 -30.5283 4.25958 3.24762 0.0337482
lowerback 2.3085 0.780321 -2.55973
upperback -2.94817 0.957924 0.669762
thorax -4.3916 0.572105 2.0683
lowerneck -21.4597 -0.419087 6.10428
upperneck 25.6565 -1.37281 -4.66521
head 11.9042 -0.632545 -3.00639
rclavicle 1.1521e-014 -9.93923e-015
rhumerus -32.9412 -13.518 -79.5681
rradius 22.6478
rwrist 1.41521
rhand -16.8921 -2.23996
rfingers 7.12502
rthumb 9.33942 -32.0131
lclavicle 1.1521e-014 -9.93923e-015
lhumerus -32.2082 0.27783 87.2628
lradius 23.2763
lwrist 6.30594
lhand -11.2386 1.67246
lfingers 7.12502
lthumb 14.7907 31.1247
rfemur -12.9314 -0.753753 18.8826
rtibia 34.0748
rfoot -18.249 -20.9651
rtoes -1.85515
lfemur -9.33776 -1.05942 -18.961
ltibia 27.2247
lfoot -14.5272 14.3055
ltoes -8.69623
82
root 0.514939 17.8227 -30.5276 4.32057 3.19168 0.0995861
lowerback 2.37348 0.774873 -2.60629
upperback -2.96276 0.946335 0.659025
thorax -4.44386 0.568507 2.08319
lowerneck -21.4441 -0.407914 6.10081
upperneck 25.5933 -1.35453 -4.66811
head 11.8778 -0.626182 -3.00182
rclavicle 5.34001e-015 1.12313e-014
rhumerus -32.9479 -13.5413 -79.5876
rradius 22.6604
rwrist 1.40183
rhand -16.9021 -2.24175
rfingers 7.12502
rthumb 9.32981 -32.0153
lclavicle 5.34001e-015 1.12313e-014
lhumerus -32.2152 0.198925 87.2735
lradius 23.3734
lwrist 6.59003
lhand -11.2384 1.97303
lfingers 7.12502
lthumb 14.7909 31.4252
rfemur -13.0852 -0.735948 18.826
rtibia 34.2475
rfoot -18.4861 -20.9306
rtoes -1.9429
lfemur -9.40954 -1.04535 -19.0156
ltibia 27.2602
lfoot -14.6249 14.3385
ltoes -8.65787
83
root 0.509087 17.8167 -30.526 4.38063 3.15022 0.13182
lowerback 2.42897 0.764996 -2.62223
upperback -2.97209 0.930887 0.659684
thorax -4.4846 0.561998 2.09312
lowerneck -21.4545 -0.405619 6.0833
upperneck 25.5744 -1.34801 -4.66148
head 11.8732 -0.624544 -2.99494
rclavicle -7.84112e-015 -1.95803e-014
rhumerus -32.9513 -13.5623 -79.61
rradius 22.6786
rwrist 1.38396
rhand -16.9033 -2.23448
rfingers 7.12502
rthumb 9.32869 -32.0081
lclavicle -7.84112e-015 -1.95803e-014
lhumerus -32.2201 0.142515 87.2769
lradius 23.4554
lwrist 6.80573
lhand -11.2513 2.17649
lfingers 7.12502
lthumb 14.7784 31.6296
rfemur -13.2263 -0.705454 18.8122
rtibia 34.4043
rfoot -18.7062 -20.9128
rtoes -2.06256
lfemur -9.49187 -1.02917 -19.0308
ltibia 27.3131
lfoot -14.7205 14.3689
ltoes -8.63241
